# xmcd
#
# Track frame offsets: 
#        150
#        18697
#        42012
#        61477
#        74055
#        96845
#        119380
#        148140
#        169798
#        190513
#
# Disc length: 2696 seconds
#
# Revision: 3
# Processed by: cddbd v1.5.2PL0 Copyright (c) Steve Scherf et al.
# Submitted via: ExactAudioCopyFreeDBPlugin 1.0
#
DISCID=910a860a
DTITLE=Ryley Walker - Primrose Green
DYEAR=2015
DGENRE=
TTITLE0=Primrose Green
TTITLE1=Summer Dress
TTITLE2=Same Minds
TTITLE3=Griffiths Bucks Blues
TTITLE4=Love Can Be Cruel
TTITLE5=On The Banks Of The Old Kishwaukee
TTITLE6=Sweet Satisfaction
TTITLE7=The High Road
TTITLE8=All Kinds Of You
TTITLE9=Hide In The Roses
EXTD=
EXTT0=
EXTT1=
EXTT2=
EXTT3=
EXTT4=
EXTT5=
EXTT6=
EXTT7=
EXTT8=
EXTT9=
PLAYORDER=
